<?xml version="1.0" encoding="UTF-8" standalone="no"?>
<!-- Generator: Adobe Illustrator 18.0.0, SVG Export Plug-In . SVG Version: 6.00 Build 0)  -->

<svg
   xmlns:dc="http://purl.org/dc/elements/1.1/"
   xmlns:cc="http://creativecommons.org/ns#"
   xmlns:rdf="http://www.w3.org/1999/02/22-rdf-syntax-ns#"
   xmlns:svg="http://www.w3.org/2000/svg"
   xmlns="http://www.w3.org/2000/svg"
   xmlns:sodipodi="http://sodipodi.sourceforge.net/DTD/sodipodi-0.dtd"
   xmlns:inkscape="http://www.inkscape.org/namespaces/inkscape"
   version="1.1"
   id="Layer_1"
   x="0px"
   y="0px"
   viewBox="0 0 440 180"
   enable-background="new 0 0 1200 180"
   xml:space="preserve"
   inkscape:version="0.91 r13725"
   sodipodi:docname="rt-bethune-banner.svg"
   width="440"
   height="180"><metadata
     id="metadata3710"><rdf:RDF><cc:Work
         rdf:about=""><dc:format>image/svg+xml</dc:format><dc:type
           rdf:resource="http://purl.org/dc/dcmitype/StillImage" /><dc:title></dc:title></cc:Work></rdf:RDF></metadata><defs
     id="defs3708" /><sodipodi:namedview
     pagecolor="#ffffff"
     bordercolor="#666666"
     borderopacity="1"
     objecttolerance="10"
     gridtolerance="10"
     guidetolerance="10"
     inkscape:pageopacity="0"
     inkscape:pageshadow="2"
     inkscape:window-width="2048"
     inkscape:window-height="1088"
     id="namedview3706"
     showgrid="false"
     inkscape:zoom="1.1133333"
     inkscape:cx="600"
     inkscape:cy="90"
     inkscape:window-x="0"
     inkscape:window-y="27"
     inkscape:window-maximized="1"
     inkscape:current-layer="Layer_1" /><g
     id="g3554"
     transform="translate(-398,0)"><path
       d="m 567.7,112.3 c 0.2,-0.1 0.2,-0.3 0.3,-0.4 0.2,-1.3 0.7,-2.6 1.5,-3.8 1.1,-1.6 2.5,-2.9 4.2,-4 2.3,-1.5 4.9,-2.4 7.6,-3 1.9,-0.4 3.9,-0.6 5.8,-0.6 1.5,0 2.9,0.1 4.3,0.4 2.7,0.5 5.3,1.3 7.6,2.6 2,1.1 3.6,2.5 4.8,4.3 1.1,1.6 1.6,3.3 1.6,5.2 -0.1,1.9 -0.7,3.7 -1.9,5.3 -1.1,1.5 -2.5,2.7 -4.2,3.7 -0.1,0.1 -0.2,0.1 -0.3,0.2 -0.3,0.2 -0.3,0.2 0,0.4 0.6,0.3 1.1,0.6 1.7,0.9 1.9,1.1 3.5,2.4 5.1,3.8 2.7,2.3 5.1,4.8 7.4,7.4 1.6,1.9 3.2,3.7 4.7,5.7 0.1,0.1 0.1,0.2 0.2,0.2 0.2,0.3 0.4,0.4 0.8,0.4 1.4,-0.1 2.9,-0.1 4.4,0.1 3.9,0.4 7.5,1.5 10.5,3.6 1.9,1.3 3.5,2.9 4.4,4.8 1.7,3.4 1.4,6.7 -0.8,9.8 -1.4,2 -3.3,3.6 -5.7,4.8 -2.1,1.1 -4.3,1.8 -6.7,2.3 -1.5,0.3 -3,0.3 -4.5,0.5 -0.1,0 -0.3,0 -0.4,0 -3.2,-0.1 -6.2,-0.6 -9.1,-1.7 -2.5,-1 -4.6,-2.3 -6.4,-4.1 -1.4,-1.5 -2.4,-3.1 -2.8,-5 -0.6,-2.6 -0.1,-5 1.3,-7.3 1.3,-2.1 3.1,-3.7 5.4,-5 0.6,-0.3 1.2,-0.6 1.8,-0.9 0.4,-0.2 0.4,-0.2 0.3,-0.5 -0.7,-1.5 -1.4,-3 -2.2,-4.5 -0.7,-1.4 -1.5,-2.7 -2.5,-4 -1.2,-1.6 -2.5,-3.1 -4.2,-4.4 -2.1,-1.5 -4.5,-2.8 -7.1,-3.6 -1.2,-0.4 -2.5,-0.6 -3.8,-0.8 -0.3,0 -0.6,0 -0.8,0 -1.6,0.2 -3.3,0.3 -5,0.2 -4.2,-0.2 -8.1,-1.2 -11.5,-3.3 -2.1,-1.3 -3.7,-2.9 -4.8,-4.8 -0.5,-0.9 -0.8,-1.9 -0.9,-2.8 0,-0.2 0,-0.4 -0.3,-0.4 0.2,-0.7 0.2,-1.2 0.2,-1.7 z"
       id="path3556"
       inkscape:connector-curvature="0"
       style="fill:#ee7b01" /><path
       d="m 586.4,151.6 c -1.5,0 -3.1,-0.2 -4.6,-0.7 -1.6,-0.5 -3,-1.2 -4.1,-2.4 -1,-1 -1.5,-2.2 -1.6,-3.6 -0.1,-2.9 1.3,-5.1 4,-6.8 1.5,-0.9 3.2,-1.5 5,-1.7 1.5,-0.2 2.9,-0.2 4.4,0.1 2.3,0.4 4.2,1.4 5.7,2.8 1.6,1.6 2.4,3.4 2.2,5.5 -0.1,1.8 -1,3.2 -2.6,4.4 -1.2,0.9 -2.7,1.5 -4.3,1.9 -1.4,0.4 -2.7,0.5 -4.1,0.5 z M 587,144 c 0.2,-0.1 0.4,-0.2 0.5,-0.3 0.6,-0.3 1.1,-0.7 1.6,-1.2 0.2,-0.2 0.3,-0.5 0.4,-0.7 0.1,-0.6 0.1,-1.2 -0.1,-1.7 -0.2,-1 -1.1,-1.6 -2.3,-1.6 -0.7,0 -1.3,0 -2,0 -0.8,0 -1.3,0.4 -1.7,0.9 -0.3,0.4 -0.4,0.7 -0.4,1.2 0,0.3 0,0.6 0,0.9 0,0.4 0.1,0.7 0.3,1 0.2,0.2 0.3,0.5 0.5,0.7 0.1,0.1 0.2,0.2 0.2,0.4 -0.2,0.1 -0.4,0.2 -0.6,0.3 -0.6,0.3 -1,0.8 -1.1,1.4 -0.1,0.6 -0.1,1.3 0,1.9 0,0.1 0.1,0.2 0.1,0.3 0.4,0.9 1.5,1.7 2.7,1.7 1.1,0 2.2,0 3.2,0 0.4,0 0.8,-0.1 1.1,-0.2 0.3,-0.1 0.5,-0.3 0.7,-0.3 0.3,0 0.4,0.3 0.7,0.4 0.3,0.1 0.6,0.1 0.9,0 0.3,-0.1 0.3,-0.3 0.3,-0.5 0,-0.4 -0.2,-0.6 -0.5,-0.9 -0.3,-0.2 -0.5,-0.5 -0.3,-0.8 0.1,-0.2 0.1,-0.3 0.1,-0.5 0,-0.8 0,-1.6 0,-2.3 0,-0.1 0,-0.2 -0.1,-0.3 0,-0.1 -0.1,-0.2 -0.3,-0.2 -0.5,-0.2 -0.9,0 -1,0.4 0,0.2 0,0.3 0,0.5 0,0.4 0,0.8 0,1.2 0,0.2 0.1,0.5 -0.1,0.5 -0.2,0.1 -0.4,-0.2 -0.5,-0.3 -0.2,-0.1 -0.4,-0.3 -0.6,-0.5 -0.5,-0.5 -1.1,-0.9 -1.7,-1.4 z"
       id="path3558"
       inkscape:connector-curvature="0"
       style="fill:#ee7b01" /><path
       d="m 587,144 c 0.6,0.5 1.1,0.9 1.7,1.4 0.2,0.2 0.4,0.3 0.6,0.5 0.2,0.1 0.3,0.4 0.5,0.3 0.2,-0.1 0.1,-0.4 0.1,-0.5 0,-0.4 0,-0.8 0,-1.2 0,-0.2 0,-0.3 0,-0.5 0.1,-0.4 0.5,-0.6 1,-0.4 0.1,0 0.2,0.1 0.3,0.2 0,0.1 0.1,0.2 0.1,0.3 0,0.8 0,1.6 0,2.3 0,0.2 0,0.4 -0.1,0.5 -0.2,0.4 0,0.6 0.3,0.8 0.3,0.2 0.5,0.5 0.5,0.9 0,0.2 0,0.4 -0.3,0.5 -0.3,0.1 -0.6,0.1 -0.9,0 -0.2,-0.1 -0.4,-0.5 -0.7,-0.4 -0.2,0 -0.5,0.2 -0.7,0.3 -0.4,0.1 -0.7,0.2 -1.1,0.2 -1.1,0 -2.2,0 -3.2,0 -1.2,0 -2.3,-0.8 -2.7,-1.7 0,-0.1 -0.1,-0.2 -0.1,-0.3 -0.1,-0.6 -0.1,-1.3 0,-1.9 0.1,-0.6 0.5,-1.1 1.1,-1.4 0.2,-0.1 0.4,-0.2 0.6,-0.3 0,-0.2 -0.1,-0.3 -0.2,-0.4 -0.2,-0.2 -0.3,-0.5 -0.5,-0.7 -0.2,-0.3 -0.3,-0.6 -0.3,-1 0,-0.3 0,-0.6 0,-0.9 0,-0.4 0.2,-0.8 0.4,-1.2 0.4,-0.6 1,-0.9 1.7,-0.9 0.7,0 1.3,0 2,0 1.2,0 2,0.7 2.3,1.6 0.1,0.6 0.1,1.2 0.1,1.7 0,0.3 -0.2,0.5 -0.4,0.7 -0.4,0.5 -1,0.9 -1.6,1.2 -0.1,0.1 -0.2,0.1 -0.5,0.3 z m -0.2,3.6 c 0.4,0 0.8,0 1.2,0 0.2,0 0.3,0 0.5,0 0.1,0 0.2,0 0.2,-0.1 0.1,-0.1 -0.1,-0.2 -0.1,-0.2 -0.1,-0.1 -0.2,-0.2 -0.3,-0.2 -0.7,-0.6 -1.4,-1.2 -2.1,-1.8 -0.3,-0.2 -0.5,-0.5 -0.8,-0.6 -0.3,0.1 -0.6,0.3 -1,0.4 0,0 0,0 -0.1,0 -1,0.5 -0.8,0.6 -0.8,1.4 0,0.3 0.2,0.6 0.5,0.8 0.4,0.2 0.8,0.3 1.2,0.3 0.6,-0.1 1.1,0 1.6,0 z m -0.6,-7.7 c -0.4,0 -0.8,0 -1.2,0.1 -0.4,0.1 -0.7,0.3 -0.7,0.6 0,0.2 0,0.5 0,0.8 0,0.2 0.1,0.3 0.2,0.5 0.3,0.3 0.6,0.5 0.9,0.8 0.1,0.1 0.2,0.1 0.4,0 0.5,-0.2 1,-0.4 1.5,-0.6 0.8,-0.3 0.9,-0.6 0.8,-1.3 0,-0.5 -0.3,-0.7 -0.8,-0.8 -0.3,0 -0.7,0 -1.1,-0.1 z"
       id="path3560"
       inkscape:connector-curvature="0"
       style="fill:#fefefe" /><path
       d="m 586.8,147.6 c -0.5,0 -1,0 -1.5,0 -0.5,0 -0.9,-0.1 -1.2,-0.3 -0.3,-0.2 -0.5,-0.4 -0.5,-0.8 0,-0.8 -0.2,-0.8 0.8,-1.4 0,0 0,0 0.1,0 0.3,-0.1 0.6,-0.3 1,-0.4 0.4,0.1 0.6,0.4 0.8,0.6 0.7,0.6 1.4,1.2 2.1,1.8 0.1,0.1 0.2,0.2 0.3,0.2 0.1,0.1 0.2,0.1 0.1,0.2 0,0.1 -0.2,0.1 -0.2,0.1 -0.2,0 -0.3,0 -0.5,0 -0.5,0 -0.9,0 -1.3,0 z"
       id="path3562"
       inkscape:connector-curvature="0"
       style="fill:#ee7b01" /><path
       d="m 586.2,139.9 c 0.4,0 0.7,0 1.1,0.1 0.6,0.1 0.8,0.3 0.8,0.8 0.1,0.7 -0.1,1 -0.8,1.3 -0.5,0.2 -1,0.4 -1.5,0.6 -0.1,0.1 -0.3,0 -0.4,0 -0.3,-0.3 -0.6,-0.5 -0.9,-0.8 -0.1,-0.1 -0.2,-0.3 -0.2,-0.5 0,-0.3 0,-0.5 0,-0.8 0,-0.3 0.3,-0.6 0.7,-0.6 0.4,-0.1 0.8,0 1.2,-0.1 z"
       id="path3564"
       inkscape:connector-curvature="0"
       style="fill:#ee7b01" /></g><g
     id="g3566"
     transform="translate(-398,0)"><rect
       x="649"
       y="53.400002"
       stroke-miterlimit="10"
       width="175.8"
       height="54.200001"
       id="rect3568"
       style="fill:#ffffff;stroke:#00417a;stroke-miterlimit:10" /><g
       id="g3570"><rect
         x="671"
         y="60.599998"
         stroke-miterlimit="10"
         width="22"
         height="29.9"
         id="rect3572"
         style="fill:#ffffff;stroke:#00417a;stroke-miterlimit:10" /><rect
         x="669.29999"
         y="88.400002"
         stroke-miterlimit="10"
         width="25.4"
         height="2.0999999"
         id="rect3574"
         style="fill:#ffffff;stroke:#00417a;stroke-miterlimit:10" /></g><path
       stroke-miterlimit="10"
       d="m 668.3,33.2 c 25.9,0.3 51.8,0.6 77.6,0.9 0,0 0,0 0,0 27,5.6 53.9,11.2 80.9,16.9 0.1,0 0.1,0.2 0,0.2 l -177.5,0 c -0.1,0 -0.2,-0.1 -0.1,-0.2 6.3,-5.9 12.7,-11.8 19.1,-17.8 0,0.1 0,0 0,0 z"
       id="path3576"
       inkscape:connector-curvature="0"
       style="fill:#ffffff;stroke:#00417a;stroke-miterlimit:10" /><path
       stroke-miterlimit="10"
       d="M 653.4,58.5"
       id="path3578"
       inkscape:connector-curvature="0"
       style="fill:#ffffff;stroke:#00417a;stroke-miterlimit:10" /><path
       stroke-miterlimit="10"
       d="M 654.9,60.6"
       id="path3580"
       inkscape:connector-curvature="0"
       style="fill:#ffffff;stroke:#00417a;stroke-miterlimit:10" /><rect
       x="649"
       y="51.200001"
       stroke-miterlimit="10"
       width="179.2"
       height="2.0999999"
       id="rect3582"
       style="fill:#ffffff;stroke:#00417a;stroke-miterlimit:10" /><rect
       x="549.59998"
       y="35.400002"
       stroke-miterlimit="10"
       width="19.1"
       height="53"
       id="rect3584"
       style="fill:#ffffff;stroke:#00417a;stroke-miterlimit:10" /><path
       stroke-miterlimit="10"
       d="m 549.6,88.4 c -46.4,-8 -92.7,-16 -139.1,-23.9 0,-7.5 0,-15.1 0,-22.6 46.4,-2.1 92.7,-4.3 139.1,-6.4 l 0,52.9 z"
       id="path3586"
       inkscape:connector-curvature="0"
       style="fill:#ffffff;stroke:#00417a;stroke-miterlimit:10" /><path
       stroke-miterlimit="10"
       d="m 579,84 c -3.4,1.5 -6.9,2.9 -10.3,4.4 l 0,-53 c 3.4,0 6.9,0 10.3,0 0,16.2 0,32.4 0,48.6 z"
       id="path3588"
       inkscape:connector-curvature="0"
       style="fill:#ffffff;stroke:#00417a;stroke-miterlimit:10" /><rect
       x="579"
       y="29"
       stroke-miterlimit="10"
       width="70"
       height="54.599998"
       id="rect3590"
       style="fill:#ffffff;stroke:#00417a;stroke-miterlimit:10" /><path
       stroke-miterlimit="10"
       d="M 410.6,41.8 C 492,36.1 573.5,30.4 654.9,24.7 c 0,-3.1 0,-6.3 0,-9.4 -84.2,7 -168.4,13.9 -252.6,20.9 2.7,1.9 5.5,3.8 8.3,5.6 z"
       id="path3592"
       inkscape:connector-curvature="0"
       style="fill:#ffffff;stroke:#00417a;stroke-miterlimit:10" /><path
       stroke-miterlimit="10"
       d="m 655.2,24.8 c -2.1,1.4 -4.1,2.8 -6.2,4.2"
       id="path3594"
       inkscape:connector-curvature="0"
       style="fill:#ffffff;stroke:#00417a;stroke-miterlimit:10" /><g
       id="g3596"><rect
         x="781"
         y="60.599998"
         stroke-miterlimit="10"
         width="22"
         height="29.9"
         id="rect3598"
         style="fill:#ffffff;stroke:#00417a;stroke-miterlimit:10" /><rect
         x="779.40002"
         y="88.400002"
         stroke-miterlimit="10"
         width="25.4"
         height="2.0999999"
         id="rect3600"
         style="fill:#ffffff;stroke:#00417a;stroke-miterlimit:10" /></g><g
       id="g3602"><rect
         x="744.20001"
         y="60.599998"
         stroke-miterlimit="10"
         width="16.5"
         height="29.9"
         id="rect3604"
         style="fill:#ffffff;stroke:#00417a;stroke-miterlimit:10" /><rect
         x="742.90002"
         y="88.400002"
         stroke-miterlimit="10"
         width="19.1"
         height="2.0999999"
         id="rect3606"
         style="fill:#ffffff;stroke:#00417a;stroke-miterlimit:10" /></g><g
       id="g3608"><rect
         x="714"
         y="60.599998"
         stroke-miterlimit="10"
         width="16.5"
         height="29.9"
         id="rect3610"
         style="fill:#ffffff;stroke:#00417a;stroke-miterlimit:10" /><rect
         x="712.79999"
         y="88.400002"
         stroke-miterlimit="10"
         width="19.1"
         height="2.0999999"
         id="rect3612"
         style="fill:#ffffff;stroke:#00417a;stroke-miterlimit:10" /></g><rect
       x="614"
       y="56.299999"
       stroke-miterlimit="10"
       width="32.599998"
       height="27.299999"
       id="rect3614"
       style="fill:#ffffff;stroke:#00417a;stroke-miterlimit:10" /><line
       stroke-miterlimit="10"
       x1="630.5"
       y1="56"
       x2="630.5"
       y2="83"
       id="line3616"
       style="fill:#ffffff;stroke:#00417a;stroke-miterlimit:10" /><path
       stroke-miterlimit="10"
       d="m 648.8,51 c 0.2,-0.1 0.2,-0.1 0.3,-0.1 0,0 0,0.1 0,0.1 0,0.1 9.8,-9.2 18.7,-17.7 -3.2,0.3 -9.3,0.9 -19,1.9 0,5.3 0,10.6 0,15.8 z"
       id="path3618"
       inkscape:connector-curvature="0"
       style="fill:#ffffff;stroke:#00417a;stroke-miterlimit:10" /><polygon
       stroke-miterlimit="10"
       points="418.5,44.9 418.5,54.6 497.5,64.2 497.5,42.2 "
       id="polygon3620"
       style="fill:none;stroke:#03437c;stroke-miterlimit:10" /></g><g
     id="g3622"
     transform="translate(-398,0)"><path
       d="m 417.2,105.2 c 0,1.6 -0.7,2.4 -2,2.4 -0.1,0 -0.3,0 -0.7,0 -0.3,0 -0.6,0 -0.8,0 -2.3,0 -3.5,0.6 -3.5,1.7 l 0,11.9 c 0,1.1 -0.3,1.8 -0.9,2.1 -0.3,0.2 -1,0.3 -2,0.3 -1.3,0 -1.9,-0.8 -1.9,-2.4 l 0,-11.9 c 0,-4.6 3.3,-6.8 9.8,-6.8 1.3,-0.1 2,0.9 2,2.7 z"
       id="path3624"
       inkscape:connector-curvature="0"
       style="fill:#03437c" /><path
       d="m 442.1,113.4 c 0,0.6 -0.1,1.2 -0.4,1.7 -0.3,0.6 -0.7,0.9 -1.2,0.9 l -17,0 c 0.2,1.7 1.8,2.6 4.7,2.6 0.3,0 0.6,0 1,0 0.4,0 0.7,0 0.9,0 1.3,0 2,0.9 2,2.8 0,1.6 -0.7,2.4 -2,2.4 -2.4,0 -4,-0.1 -4.9,-0.2 -2,-0.3 -3.5,-0.9 -4.5,-1.8 -1.5,-1.4 -2.2,-3.1 -2.2,-5 l 0,-7.2 c 0,-2.5 1.1,-4.3 3.3,-5.6 1.7,-0.9 3.6,-1.4 5.9,-1.4 l 6.6,0 c 1.8,0 3.5,0.4 4.9,1.2 1.9,1.1 2.9,2.8 2.9,5 l 0,4.6 z m -4.7,-2.8 0,-1.6 c 0,-0.5 -0.4,-0.9 -1.3,-1.1 -0.3,-0.1 -1.3,-0.2 -2.9,-0.3 0,0 -1.7,0 -5.1,0 -1.5,0 -2.4,0 -2.7,0.1 -1.3,0.2 -2,0.7 -2,1.5 l 0,1.5 14,0 z m -3.7,-15.1 c -0.1,0.2 -0.9,1.2 -2.4,3 -1.5,1.8 -2.3,2.8 -2.5,3 -0.3,0.3 -0.7,0.5 -1.1,0.5 -0.5,0 -0.9,-0.2 -1.2,-0.6 -0.4,-0.4 -0.5,-0.8 -0.5,-1.4 0,-0.5 0.2,-0.9 0.5,-1.3 l 4.7,-5.7 c 0.2,-0.3 0.5,-0.4 0.9,-0.4 0.5,0 0.9,0.2 1.3,0.6 0.4,0.4 0.6,0.9 0.6,1.4 -0.1,0.4 -0.1,0.6 -0.3,0.9 z"
       id="path3626"
       inkscape:connector-curvature="0"
       style="fill:#03437c" /><path
       d="m 465.3,117.2 c 0,4.3 -2.6,6.4 -7.7,6.4 l -12,0 c -1.3,0 -1.9,-0.8 -1.9,-2.4 0,-1.9 0.6,-2.8 1.9,-2.8 l 12,0 c 1,0 1.6,0 1.7,0 0.7,-0.1 1,-0.5 1,-1.2 l 0,-0.7 c 0,-0.7 -0.8,-1 -2.4,-1 l -5.8,0 c -5.7,0 -8.6,-2.1 -8.6,-6.2 l 0,-1.1 c 0,-2.7 1.4,-4.5 4.2,-5.3 1.3,-0.4 3.5,-0.5 6.8,-0.5 1.3,0 2,0.8 2,2.4 l 0,0.4 c 0,1.6 -0.7,2.4 -2,2.4 l -2.5,0 c -2.4,0 -3.5,0.2 -3.5,0.6 l 0,1 c 0,0.7 1.3,1 3.8,1 l 5.9,0 c 1.9,0 3.4,0.4 4.6,1.1 1.7,1 2.6,2.7 2.6,5 l 0,0.9 z"
       id="path3628"
       inkscape:connector-curvature="0"
       style="fill:#03437c" /><path
       d="m 490.4,113.4 c 0,0.6 -0.1,1.2 -0.4,1.7 -0.3,0.6 -0.7,0.9 -1.2,0.9 l -17,0 c 0.2,1.7 1.8,2.6 4.7,2.6 0.3,0 0.6,0 1,0 0.4,0 0.7,0 0.9,0 1.3,0 2,0.9 2,2.8 0,1.6 -0.7,2.4 -2,2.4 -2.4,0 -4,-0.1 -4.9,-0.2 -2,-0.3 -3.5,-0.9 -4.5,-1.8 -1.5,-1.4 -2.2,-3.1 -2.2,-5 l 0,-7.2 c 0,-2.5 1.1,-4.3 3.3,-5.6 1.7,-0.9 3.6,-1.4 5.9,-1.4 l 6.6,0 c 1.8,0 3.5,0.4 4.9,1.2 1.9,1.1 2.9,2.8 2.9,5 l 0,4.6 z m -4.7,-2.8 0,-1.6 c 0,-0.5 -0.4,-0.9 -1.3,-1.1 -0.3,-0.1 -1.3,-0.2 -2.9,-0.3 0,0 -1.7,0 -5.1,0 -1.5,0 -2.4,0 -2.7,0.1 -1.3,0.2 -2,0.7 -2,1.5 l 0,1.5 14,0 z"
       id="path3630"
       inkscape:connector-curvature="0"
       style="fill:#03437c" /><path
       d="m 516.9,116.9 c 0,4.4 -2.6,6.7 -7.9,6.7 l -8.7,0 c -1.8,0 -3.5,-0.5 -5.1,-1.4 -2.1,-1.2 -3.1,-2.9 -3.1,-5.1 l 0,-2.5 c 0,-2.4 1,-4.1 3,-5.3 1.5,-0.8 3.2,-1.3 5.1,-1.3 l 11.3,0 c -0.6,-0.3 -1.5,-0.4 -2.8,-0.5 0.7,0 -0.3,0 -2.8,0 -1.3,0 -2,-0.8 -2,-2.4 l 0,-0.4 c 0,-1.6 0.7,-2.4 2,-2.4 3.2,0 5.5,0.3 7,0.8 2.7,1 4.1,3 4.1,6 l 0,7.8 z m -4.9,-3.7 -12,0 c -2.1,0 -3.2,0.5 -3.2,1.4 l 0,2.5 c 0,0.9 1.1,1.3 3.3,1.3 l 8.8,0 c 1.8,0 2.7,-0.3 3,-1 0.2,-0.3 0.2,-1.7 0.1,-4.2 z"
       id="path3632"
       inkscape:connector-curvature="0"
       style="fill:#03437c" /><path
       d="m 542.2,117 c 0,3.4 -2.1,5.5 -6.3,6.3 -1.3,0.2 -2.9,0.4 -4.7,0.4 -0.5,0 -1.2,0 -2,0 -0.8,0 -1.3,0 -1.5,0 -6.2,0 -9.3,-2.2 -9.3,-6.6 l 0,-12.2 c 0,-1.6 0.6,-2.4 1.9,-2.4 1,0 1.6,0.1 2,0.3 0.6,0.3 0.9,1 0.9,2.1 l 0,12.1 c 0,0.8 0.6,1.2 1.9,1.4 0.2,0 1.1,0 2.6,0 l 5.3,0 c 1.4,0 2.3,0 2.5,0 1.2,-0.2 1.8,-0.6 1.8,-1.4 l 0,-12.2 c 0,-1.1 0.3,-1.8 0.9,-2.1 0.3,-0.2 1,-0.2 2,-0.2 1.3,0 2,0.8 2,2.4 l 0,12.1 z"
       id="path3634"
       inkscape:connector-curvature="0"
       style="fill:#03437c" /><path
       d="m 564.9,119.3 c 0.7,0.6 1,1.3 1,2.1 0,0.6 -0.2,1.1 -0.6,1.5 -0.4,0.4 -0.9,0.6 -1.6,0.6 l -1.1,0 c -0.4,0 -0.8,-0.1 -1.2,-0.4 l -7.6,-6.8 -7.7,6.8 c -0.3,0.3 -0.7,0.5 -1.1,0.5 l -1,0 c -0.7,0 -1.2,-0.2 -1.6,-0.6 -0.4,-0.4 -0.6,-0.9 -0.6,-1.6 0,-0.8 0.3,-1.5 1,-2.1 l 7.2,-6.3 -7.1,-6.3 c -0.7,-0.6 -1,-1.3 -1,-2.1 0,-0.6 0.2,-1.1 0.6,-1.6 0.4,-0.4 0.9,-0.6 1.6,-0.6 l 1.1,0 c 0.4,0 0.8,0.2 1.1,0.5 l 7.5,6.7 7.4,-6.7 c 0.3,-0.3 0.7,-0.5 1.2,-0.5 l 1.1,0 c 0.7,0 1.2,0.2 1.6,0.6 0.4,0.4 0.6,0.9 0.6,1.5 0,0.8 -0.3,1.5 -1,2.1 l -7,6.3 7.2,6.4 z"
       id="path3636"
       inkscape:connector-curvature="0"
       style="fill:#03437c" /></g><g
     id="g3638"
     transform="translate(-398,0)"><path
       d="m 659.2,152.6 c 0,1.3 -0.7,1.9 -2.1,1.9 l -5.3,0 0,10.9 c 0,1.3 -0.7,1.9 -2.1,1.9 -1,0 -1.7,-0.1 -2.1,-0.2 -0.6,-0.3 -1,-0.8 -1,-1.7 l 0,-10.9 -0.7,0 c -0.7,0 -1.2,-0.2 -1.6,-0.6 -0.3,-0.4 -0.5,-0.9 -0.5,-1.4 0,-0.5 0.2,-1 0.5,-1.4 0.4,-0.4 0.9,-0.6 1.6,-0.6 l 0.7,0 0,-2.5 c 0,-1.3 0.7,-1.9 2.1,-1.9 1,0 1.7,0.1 2.1,0.2 0.7,0.3 1,0.8 1,1.7 l 0,2.5 5.3,0 c 1.4,-0.1 2.1,0.6 2.1,2.1 z"
       id="path3640"
       inkscape:connector-curvature="0"
       style="fill:#03437c" /><path
       d="m 685.8,159.1 c 0,0.5 -0.1,0.9 -0.4,1.4 -0.3,0.5 -0.8,0.7 -1.3,0.7 l -18.2,0 c 0.2,1.4 1.9,2.1 5,2.1 0.3,0 0.6,0 1.1,0 0.5,0 0.8,0 0.9,0 1.4,0 2.1,0.7 2.1,2.2 0,1.3 -0.7,1.9 -2.1,1.9 -2.6,0 -4.3,0 -5.2,-0.1 -2.1,-0.2 -3.7,-0.7 -4.8,-1.5 -1.6,-1.1 -2.4,-2.5 -2.4,-4.1 l 0,-5.9 c 0,-2 1.2,-3.5 3.5,-4.5 1.8,-0.8 3.9,-1.1 6.3,-1.1 l 7.1,0 c 2,0 3.7,0.3 5.2,1 2.1,0.9 3.1,2.3 3.1,4.1 l 0,3.8 z m -5,-2.2 0,-1.3 c 0,-0.4 -0.5,-0.7 -1.4,-0.9 -0.4,-0.1 -1.4,-0.1 -3.1,-0.2 0,0 -1.8,0 -5.4,0 -1.6,0 -2.5,0 -2.9,0.1 -1.4,0.2 -2.1,0.5 -2.1,1.2 l 0,1.2 14.9,0 z m -4,-12.3 c -0.1,0.2 -1,1 -2.6,2.4 -1.6,1.5 -2.5,2.3 -2.7,2.4 -0.4,0.3 -0.8,0.4 -1.2,0.4 -0.5,0 -0.9,-0.2 -1.3,-0.5 -0.4,-0.3 -0.6,-0.7 -0.6,-1.1 0,-0.4 0.2,-0.7 0.5,-1.1 l 5,-4.6 c 0.2,-0.2 0.6,-0.3 1,-0.3 0.5,0 1,0.2 1.4,0.5 0.4,0.3 0.7,0.7 0.7,1.1 0.1,0.4 0,0.6 -0.2,0.8 z"
       id="path3642"
       inkscape:connector-curvature="0"
       style="fill:#03437c" /><path
       d="m 692.7,165.5 c 0,1.3 -0.7,1.9 -2.1,1.9 -1,0 -1.7,-0.1 -2.1,-0.2 -0.6,-0.3 -1,-0.8 -1,-1.7 l 0,-17.6 c 0,-1.3 0.7,-1.9 2.1,-1.9 1,0 1.7,0.1 2.1,0.2 0.7,0.3 1,0.8 1,1.7 l 0,17.6 z"
       id="path3644"
       inkscape:connector-curvature="0"
       style="fill:#03437c" /><path
       d="m 719.3,159.1 c 0,0.5 -0.1,0.9 -0.4,1.4 -0.3,0.5 -0.8,0.7 -1.3,0.7 l -18.2,0 c 0.2,1.4 1.9,2.1 5,2.1 0.3,0 0.6,0 1.1,0 0.5,0 0.8,0 0.9,0 1.4,0 2.1,0.7 2.1,2.2 0,1.3 -0.7,1.9 -2.1,1.9 -2.6,0 -4.3,0 -5.2,-0.1 -2.1,-0.2 -3.7,-0.7 -4.8,-1.5 -1.6,-1.1 -2.4,-2.5 -2.4,-4.1 l 0,-5.9 c 0,-2 1.2,-3.5 3.5,-4.5 1.8,-0.8 3.9,-1.1 6.3,-1.1 l 7.1,0 c 2,0 3.7,0.3 5.2,1 2.1,0.9 3.1,2.3 3.1,4.1 l 0,3.8 z m -5,-2.2 0,-1.3 c 0,-0.4 -0.5,-0.7 -1.4,-0.9 -0.4,-0.1 -1.4,-0.1 -3.1,-0.2 0,0 -1.8,0 -5.4,0 -1.6,0 -2.5,0 -2.9,0.1 -1.4,0.2 -2.1,0.5 -2.1,1.2 l 0,1.2 14.9,0 z m -4,-12.3 c -0.1,0.2 -1,1 -2.6,2.4 -1.6,1.5 -2.5,2.3 -2.7,2.4 -0.4,0.3 -0.8,0.4 -1.2,0.4 -0.5,0 -0.9,-0.2 -1.3,-0.5 -0.4,-0.3 -0.6,-0.7 -0.6,-1.1 0,-0.4 0.2,-0.7 0.5,-1.1 l 5,-4.6 c 0.2,-0.2 0.6,-0.3 1,-0.3 0.5,0 1,0.2 1.4,0.5 0.4,0.3 0.7,0.7 0.7,1.1 0.1,0.4 0,0.6 -0.2,0.8 z"
       id="path3646"
       inkscape:connector-curvature="0"
       style="fill:#03437c" /><path
       d="m 746.8,165.5 c 0,0.6 -0.3,1.1 -0.8,1.5 -0.5,0.3 -1,0.4 -1.6,0.4 l -14.1,0 c -2.7,0 -4.8,-0.3 -6.3,-0.9 -2.2,-0.9 -3.3,-2.4 -3.3,-4.6 l 0,-6.3 c 0,-2.1 1,-3.6 3.1,-4.5 1.5,-0.6 3.3,-0.9 5.7,-0.9 l 15,0 c 0.7,0 1.2,0.2 1.6,0.6 0.3,0.4 0.5,0.9 0.5,1.4 0,0.5 -0.2,1 -0.5,1.4 -0.4,0.4 -0.9,0.6 -1.6,0.6 l -14.8,0 c -2.6,0 -3.9,0.4 -3.9,1.2 l 0,6.2 c 0,0.7 0.6,1.1 1.8,1.3 0.5,0.1 1.4,0.1 2.7,0.1 l 14.3,0 c 1.5,0.2 2.2,1 2.2,2.5 z"
       id="path3648"
       inkscape:connector-curvature="0"
       style="fill:#03437c" /><path
       d="m 773.3,161.8 c 0,2.1 -1.1,3.6 -3.3,4.5 -1.6,0.7 -3.5,1 -5.8,1 l -6.3,0 c -2.3,0 -4.3,-0.4 -6.1,-1.1 -2.3,-1 -3.4,-2.5 -3.4,-4.4 l 0,-5.8 c 0,-2 1.2,-3.6 3.5,-4.6 1.8,-0.8 3.7,-1.1 5.9,-1.1 l 6.3,0 c 6.1,0 9.1,1.9 9.1,5.7 l 0,5.8 z m -5.2,0 0,-6.1 c 0,-0.6 -0.5,-1 -1.6,-1.2 -0.4,-0.1 -1.2,-0.1 -2.4,-0.1 l -6.2,0 c -2.9,0 -4.4,0.5 -4.4,1.5 l 0,5.9 c 0,0.9 1.5,1.4 4.4,1.4 l 6.2,0 c 2.7,0 4,-0.5 4,-1.4 z"
       id="path3650"
       inkscape:connector-curvature="0"
       style="fill:#03437c" /><path
       d="m 809,165.5 c 0,1.3 -0.7,1.9 -2.1,1.9 -1,0 -1.7,-0.1 -2.1,-0.2 -0.7,-0.3 -1,-0.8 -1,-1.7 l 0,-9.8 c 0,-0.8 -1.4,-1.3 -4.1,-1.3 -0.3,0 -0.7,0 -1.2,0 -0.5,0 -0.7,0 -0.8,0 -1,0 -1.7,0.1 -2.1,0.2 -0.7,0.2 -1,0.7 -1,1.5 l 0,9.4 c 0,0.9 -0.3,1.4 -1,1.7 -0.4,0.1 -1.1,0.2 -2.1,0.2 -1.4,0 -2.1,-0.6 -2.1,-1.9 l 0,-9.4 c 0,-0.7 -0.3,-1.2 -0.9,-1.4 -0.3,-0.1 -1,-0.2 -1.9,-0.2 -0.1,0 -0.4,0 -0.9,0 -0.5,0 -1,0 -1.4,0 -2.7,0 -4.1,0.4 -4.1,1.3 l 0,9.8 c 0,0.9 -0.3,1.4 -1,1.7 -0.4,0.1 -1.1,0.2 -2.1,0.2 -1.4,0 -2.1,-0.6 -2.1,-1.9 l 0,-9.6 c 0,-3.9 3,-5.8 8.9,-5.8 2.3,0 3.7,0 4.2,0.1 1.4,0.1 2.7,0.5 4,1.2 1.2,-0.6 2.5,-1 4,-1.1 0.7,-0.1 2.1,-0.1 4.2,-0.1 5.8,0 8.6,1.9 8.6,5.8 l 0,9.4 z"
       id="path3652"
       inkscape:connector-curvature="0"
       style="fill:#03437c" /><path
       d="m 833.7,162.2 c 0,3.4 -2.7,5.2 -8.2,5.2 l -12.9,0 c -1.4,0 -2.1,-0.6 -2.1,-1.9 0,-1.5 0.7,-2.3 2.1,-2.3 l 12.9,0 c 1.1,0 1.7,0 1.8,0 0.7,-0.1 1.1,-0.4 1.1,-1 l 0,-0.6 c 0,-0.6 -0.9,-0.8 -2.6,-0.8 l -6.2,0 c -6.1,0 -9.2,-1.7 -9.2,-5 l 0,-0.9 c 0,-2.2 1.5,-3.6 4.4,-4.3 1.3,-0.3 3.7,-0.4 7.2,-0.4 1.4,0 2.1,0.6 2.1,1.9 l 0,0.3 c 0,1.3 -0.7,1.9 -2.1,1.9 l -2.7,0 c -2.5,0 -3.8,0.2 -3.8,0.5 l 0,0.8 c 0,0.5 1.4,0.8 4,0.8 l 6.3,0 c 2,0 3.7,0.3 5,0.9 1.8,0.8 2.7,2.2 2.7,4 l 0,0.9 z"
       id="path3654"
       inkscape:connector-curvature="0"
       style="fill:#03437c" /></g><g
     id="g3656"
     transform="translate(-398,0)"><path
       d="m 429.9,148.4 c 0,0.8 -0.3,1.2 -1,1.2 -0.5,0 -0.9,0 -1.1,-0.1 -0.3,-0.2 -0.5,-0.5 -0.5,-1.1 l 0,-11.4 c 0,-0.6 0.2,-1 0.5,-1.1 0.2,-0.1 0.5,-0.1 1.1,-0.1 0.7,0 1,0.4 1,1.2 l 0,11.4 z"
       id="path3658"
       inkscape:connector-curvature="0"
       style="fill:#ee7b01" /><path
       d="m 443,148.4 c 0,0.8 -0.3,1.2 -1,1.2 -0.5,0 -0.8,0 -1,-0.1 -0.3,-0.2 -0.5,-0.5 -0.5,-1.1 l 0,-6.6 c 0,-0.4 -0.7,-0.6 -2,-0.6 l -3,0 c -1.4,0 -2.1,0.2 -2.1,0.6 l 0,6.5 c 0,0.8 -0.3,1.2 -1,1.2 -0.5,0 -0.8,0 -1,-0.1 -0.3,-0.2 -0.5,-0.5 -0.5,-1.1 l 0,-6.5 c 0,-2.2 1.5,-3.3 4.6,-3.3 l 3,0 c 1.2,0 2.2,0.2 2.9,0.6 1.1,0.6 1.6,1.5 1.6,2.7 l 0,6.6 z"
       id="path3660"
       inkscape:connector-curvature="0"
       style="fill:#ee7b01" /><path
       d="m 449.8,139.9 c 0,1 -0.3,1.5 -1,1.5 l -2.5,0 0,7.1 c 0,0.8 -0.3,1.2 -1,1.2 -0.5,0 -0.8,0 -1,-0.1 -0.3,-0.2 -0.5,-0.5 -0.5,-1.1 l 0,-9.2 c 0,-2.4 1.7,-3.6 5,-3.4 0.7,0 1,0.5 1,1.5 0,0.8 -0.3,1.2 -1,1.2 -1.2,0 -1.9,0.1 -2.2,0.2 l 2.2,0 c 0.7,-0.1 1,0.3 1,1.1 z"
       id="path3662"
       inkscape:connector-curvature="0"
       style="fill:#ee7b01" /><path
       d="m 462.8,146.1 c 0,1.3 -0.5,2.3 -1.6,2.9 -0.8,0.4 -1.7,0.7 -2.8,0.7 l -3.1,0 c -1.1,0 -2.1,-0.2 -3,-0.7 -1.1,-0.6 -1.7,-1.6 -1.7,-2.9 l 0,-3.8 c 0,-1.3 0.6,-2.3 1.7,-3 0.9,-0.5 1.8,-0.7 2.9,-0.7 l 3.1,0 c 3,0 4.5,1.2 4.5,3.7 l 0,3.8 z m -2.5,0 0,-4 c 0,-0.4 -0.3,-0.7 -0.8,-0.8 -0.2,0 -0.6,-0.1 -1.2,-0.1 l -3,0 c -1.4,0 -2.1,0.3 -2.1,1 l 0,3.8 c 0,0.6 0.7,0.9 2.1,0.9 l 3,0 c 1.3,0.1 2,-0.2 2,-0.8 z"
       id="path3664"
       inkscape:connector-curvature="0"
       style="fill:#ee7b01" /><path
       d="m 469.8,140 c 0,0.8 -0.3,1.2 -1,1.2 -0.1,0 -0.2,0 -0.4,0 -0.2,0 -0.3,0 -0.4,0 -1.2,0 -1.8,0.3 -1.8,0.9 l 0,6.3 c 0,0.6 -0.2,0.9 -0.5,1.1 -0.2,0.1 -0.5,0.1 -1,0.1 -0.7,0 -1,-0.4 -1,-1.3 l 0,-6.3 c 0,-2.4 1.7,-3.6 5.1,-3.6 0.7,0.2 1,0.7 1,1.6 z"
       id="path3666"
       inkscape:connector-curvature="0"
       style="fill:#ee7b01" /><path
       d="m 487.3,148.4 c 0,0.8 -0.3,1.2 -1,1.2 -0.5,0 -0.9,0 -1,-0.1 -0.3,-0.2 -0.5,-0.5 -0.5,-1.1 l 0,-6.3 c 0,-0.5 -0.7,-0.8 -2,-0.8 -0.2,0 -0.4,0 -0.6,0 -0.2,0 -0.4,0 -0.4,0 -0.5,0 -0.8,0 -1,0.1 -0.3,0.2 -0.5,0.5 -0.5,0.9 l 0,6.1 c 0,0.6 -0.2,0.9 -0.5,1.1 -0.2,0.1 -0.5,0.1 -1,0.1 -0.7,0 -1,-0.4 -1,-1.2 l 0,-6.1 c 0,-0.5 -0.2,-0.8 -0.5,-0.9 -0.2,-0.1 -0.5,-0.1 -1,-0.1 0,0 -0.2,0 -0.4,0 -0.3,0 -0.5,0 -0.7,0 -1.3,0 -2,0.3 -2,0.8 l 0,6.3 c 0,0.6 -0.2,0.9 -0.5,1.1 -0.2,0.1 -0.5,0.1 -1,0.1 -0.7,0 -1,-0.4 -1,-1.2 l 0,-6.1 c 0,-2.5 1.5,-3.8 4.4,-3.8 1.1,0 1.8,0 2.1,0 0.7,0.1 1.3,0.3 2,0.8 0.6,-0.4 1.2,-0.6 2,-0.7 0.3,0 1,-0.1 2.1,-0.1 2.8,0 4.2,1.3 4.2,3.8 l 0,6.1 z"
       id="path3668"
       inkscape:connector-curvature="0"
       style="fill:#ee7b01" /><path
       d="m 501.2,146.2 c 0,2.3 -1.4,3.5 -4.1,3.5 l -4.6,0 c -0.9,0 -1.8,-0.2 -2.7,-0.7 -1.1,-0.6 -1.6,-1.5 -1.6,-2.7 l 0,-1.3 c 0,-1.2 0.5,-2.2 1.6,-2.8 0.8,-0.4 1.7,-0.7 2.7,-0.7 l 5.9,0 c -0.3,-0.2 -0.8,-0.2 -1.4,-0.2 0.4,0 -0.1,0 -1.5,0 -0.7,0 -1,-0.4 -1,-1.2 l 0,-0.2 c 0,-0.8 0.3,-1.2 1,-1.2 1.7,0 2.9,0.1 3.7,0.4 1.4,0.5 2.1,1.6 2.1,3.1 l 0,4 z m -2.6,-2 -6.3,0 c -1.1,0 -1.7,0.2 -1.7,0.7 l 0,1.3 c 0,0.5 0.6,0.7 1.7,0.7 l 4.6,0 c 0.9,0 1.4,-0.2 1.6,-0.5 0.2,-0.1 0.2,-0.8 0.1,-2.2 z"
       id="path3670"
       inkscape:connector-curvature="0"
       style="fill:#ee7b01" /><path
       d="m 508.8,140.1 c 0,0.8 -0.3,1.2 -1,1.2 l -2.6,0 0,7.1 c 0,0.8 -0.3,1.2 -1,1.2 -0.5,0 -0.8,0 -1,-0.1 -0.3,-0.2 -0.5,-0.5 -0.5,-1.1 l 0,-7.1 -0.3,0 c -0.3,0 -0.6,-0.1 -0.8,-0.4 -0.2,-0.3 -0.3,-0.6 -0.3,-0.9 0,-0.3 0.1,-0.7 0.3,-0.9 0.2,-0.3 0.5,-0.4 0.8,-0.4 l 0.3,0 0,-1.7 c 0,-0.8 0.3,-1.2 1,-1.2 0.5,0 0.8,0 1,0.1 0.3,0.2 0.5,0.5 0.5,1.1 l 0,1.6 2.6,0 c 0.7,0.1 1,0.5 1,1.5 z"
       id="path3672"
       inkscape:connector-curvature="0"
       style="fill:#ee7b01" /><path
       d="m 512.2,148.4 c 0,0.8 -0.3,1.2 -1,1.2 -0.5,0 -0.8,0 -1,-0.2 -0.3,-0.2 -0.5,-0.5 -0.5,-1.1 l 0,-7.8 c 0,-0.4 0.1,-0.8 0.3,-1 -0.4,-0.3 -0.7,-0.7 -0.7,-1.2 0,-0.5 0.2,-0.8 0.5,-1.1 0.3,-0.2 0.6,-0.4 1,-0.4 0.4,0 0.8,0.1 1.1,0.4 0.3,0.3 0.5,0.6 0.5,1.1 0,0.5 -0.2,0.9 -0.6,1.2 0.2,0.2 0.3,0.5 0.3,1 l 0,7.9 z"
       id="path3674"
       inkscape:connector-curvature="0"
       style="fill:#ee7b01" /><path
       d="m 525.6,151.3 c 0,0.6 -0.2,1 -0.6,1.2 -0.1,0 -0.4,0.1 -0.9,0.1 -0.7,0 -1,-0.4 -1,-1.2 l 0,-1.7 -5.4,0 c -2.9,0 -4.4,-1.2 -4.4,-3.6 l 0,-4 c 0,-2.3 1.6,-3.4 4.8,-3.4 l 3,0 c 3,0 4.6,1.1 4.6,3.4 l 0,9.2 z m -2.5,-4.4 0,-4.8 c 0,-0.4 -0.3,-0.6 -0.9,-0.8 -0.2,0 -0.6,-0.1 -1.2,-0.1 l -2.9,0 c -0.7,0 -1.1,0 -1.3,0 -0.6,0.1 -1,0.3 -1,0.7 l 0,4 c 0,0.4 0.2,0.7 0.7,0.8 0.1,0 0.5,0.1 1.1,0.1 l 5.5,0 z"
       id="path3676"
       inkscape:connector-curvature="0"
       style="fill:#ee7b01" /><path
       d="m 538.9,146.2 c 0,1.8 -1.1,2.9 -3.3,3.3 -0.7,0.1 -1.5,0.2 -2.5,0.2 -0.3,0 -0.6,0 -1.1,0 -0.4,0 -0.7,0 -0.8,0 -3.2,0 -4.9,-1.2 -4.9,-3.5 l 0,-6.4 c 0,-0.8 0.3,-1.2 1,-1.2 0.5,0 0.8,0 1,0.1 0.3,0.2 0.5,0.5 0.5,1.1 l 0,6.4 c 0,0.4 0.3,0.6 1,0.7 0.1,0 0.6,0 1.4,0 l 2.8,0 c 0.8,0 1.2,0 1.3,0 0.6,-0.1 1,-0.3 1,-0.7 l 0,-6.4 c 0,-0.6 0.2,-0.9 0.5,-1.1 0.2,-0.1 0.5,-0.1 1,-0.1 0.7,0 1,0.4 1,1.2 l 0,6.4 z"
       id="path3678"
       inkscape:connector-curvature="0"
       style="fill:#ee7b01" /><path
       d="m 552,144.3 c 0,0.3 -0.1,0.6 -0.2,0.9 -0.2,0.3 -0.4,0.5 -0.6,0.5 l -8.9,0 c 0.1,0.9 0.9,1.3 2.5,1.3 0.1,0 0.3,0 0.5,0 0.2,0 0.4,0 0.4,0 0.7,0 1,0.5 1,1.4 0,0.8 -0.3,1.2 -1,1.2 -1.3,0 -2.1,0 -2.5,-0.1 -1,-0.1 -1.8,-0.5 -2.4,-0.9 -0.8,-0.7 -1.2,-1.6 -1.2,-2.6 l 0,-3.8 c 0,-1.3 0.6,-2.3 1.7,-2.9 0.9,-0.5 1.9,-0.7 3.1,-0.7 l 3.5,0 c 1,0 1.8,0.2 2.6,0.6 1,0.6 1.5,1.5 1.5,2.6 l 0,2.5 z m -2.4,-1.4 0,-0.9 c 0,-0.3 -0.2,-0.5 -0.7,-0.6 -0.2,0 -0.7,-0.1 -1.5,-0.2 0,0 -0.9,0 -2.7,0 -0.8,0 -1.3,0 -1.4,0 -0.7,0.1 -1,0.4 -1,0.8 l 0,0.8 7.3,0 z"
       id="path3680"
       inkscape:connector-curvature="0"
       style="fill:#ee7b01" /><path
       d="m 564.2,146.3 c 0,2.2 -1.3,3.3 -4,3.3 l -6.3,0 c -0.7,0 -1,-0.4 -1,-1.2 0,-1 0.3,-1.5 1,-1.5 l 6.3,0 c 0.5,0 0.8,0 0.9,0 0.4,-0.1 0.5,-0.3 0.5,-0.6 l 0,-0.4 c 0,-0.4 -0.4,-0.5 -1.3,-0.5 l -3,0 c -3,0 -4.5,-1.1 -4.5,-3.2 l 0,-0.6 c 0,-1.4 0.7,-2.3 2.2,-2.8 0.7,-0.2 1.8,-0.3 3.5,-0.3 0.7,0 1,0.4 1,1.2 l 0,0.2 c 0,0.8 -0.3,1.2 -1,1.2 l -1.3,0 c -1.2,0 -1.9,0.1 -1.9,0.3 l 0,0.5 c 0,0.3 0.7,0.5 2,0.5 l 3.1,0 c 1,0 1.8,0.2 2.4,0.6 0.9,0.5 1.3,1.4 1.3,2.6 l 0,0.7 z"
       id="path3682"
       inkscape:connector-curvature="0"
       style="fill:#ee7b01" /></g><g
     id="g3684"
     transform="translate(-398,0)"><path
       d="m 652.7,134.7 c 0,1 -0.5,1.5 -1.4,1.5 -0.7,0 -1.1,-0.1 -1.3,-0.2 -0.4,-0.2 -0.6,-0.7 -0.6,-1.3 l 0,-9.6 c 0,-0.5 0.2,-0.9 0.5,-1.2 -0.6,-0.3 -0.9,-0.8 -0.9,-1.5 0,-0.6 0.2,-1 0.6,-1.4 0.4,-0.3 0.8,-0.4 1.4,-0.4 0.6,0 1,0.1 1.4,0.4 0.4,0.3 0.6,0.8 0.6,1.4 0,0.7 -0.3,1.1 -0.8,1.5 0.3,0.2 0.5,0.7 0.5,1.2 l 0,9.6 z"
       id="path3686"
       inkscape:connector-curvature="0"
       style="fill:#ee7b01" /><path
       d="m 671.7,132 c 0,2.2 -1.5,3.6 -4.4,4.1 -0.9,0.2 -2,0.2 -3.3,0.2 -0.4,0 -0.8,0 -1.4,0 -0.5,0 -0.9,0 -1.1,0 -4.3,0 -6.5,-1.4 -6.5,-4.3 l 0,-7.8 c 0,-1 0.4,-1.5 1.3,-1.5 0.7,0 1.1,0.1 1.4,0.2 0.4,0.2 0.6,0.7 0.6,1.4 l 0,7.8 c 0,0.5 0.4,0.8 1.3,0.9 0.2,0 0.8,0 1.8,0 l 3.7,0 c 1,0 1.6,0 1.8,0 0.9,-0.1 1.3,-0.4 1.3,-0.9 l 0,-7.9 c 0,-0.7 0.2,-1.2 0.6,-1.4 0.2,-0.1 0.7,-0.2 1.4,-0.2 0.9,0 1.4,0.5 1.4,1.5 l 0,7.9 z"
       id="path3688"
       inkscape:connector-curvature="0"
       style="fill:#ee7b01" /><path
       d="m 682.9,124.5 c 0,1 -0.5,1.5 -1.4,1.5 l -3.5,0 0,8.7 c 0,1 -0.5,1.5 -1.4,1.5 -0.7,0 -1.1,-0.1 -1.4,-0.2 -0.4,-0.2 -0.6,-0.7 -0.6,-1.4 l 0,-8.7 -0.4,0 c -0.4,0 -0.8,-0.2 -1,-0.5 -0.2,-0.3 -0.3,-0.7 -0.3,-1.1 0,-0.4 0.1,-0.8 0.3,-1.1 0.3,-0.3 0.6,-0.5 1,-0.5 l 0.4,0 0,-2 c 0,-1 0.5,-1.5 1.3,-1.5 0.7,0 1.1,0.1 1.4,0.2 0.4,0.2 0.6,0.7 0.6,1.4 l 0,2 3.5,0 c 1.1,-0.1 1.5,0.5 1.5,1.7 z"
       id="path3690"
       inkscape:connector-curvature="0"
       style="fill:#ee7b01" /><path
       d="m 723.6,131.5 c 0,1.7 -0.7,3 -2.2,3.8 -1.1,0.6 -2.4,0.9 -4,0.9 l -11.1,0 c -0.9,0 -1.4,-0.5 -1.4,-1.5 l 0,-14 c 0,-1 0.5,-1.5 1.4,-1.5 l 10.7,0 c 1.3,0 2.2,0.1 2.9,0.3 1,0.3 1.9,0.8 2.6,1.6 0.7,0.8 1,1.7 1,2.7 0,1.1 0,1.7 -0.1,2 -0.1,0.5 -0.4,1.1 -0.9,1.9 l 0,0.1 c 0.5,0.6 0.8,1.2 0.9,1.8 0.1,0.2 0.2,0.9 0.2,1.9 z m -3.5,-1 c 0,-0.5 -0.4,-0.9 -1.1,-1 -0.2,0 -0.7,-0.1 -1.7,-0.1 l -8.8,0 0,3.4 8.6,0 c 0.8,0 1.4,0 1.7,-0.1 0.7,-0.1 1.2,-0.5 1.2,-1 0.1,-0.1 0.1,-0.5 0.1,-1.2 z m 0.1,-5.4 c 0,-0.1 0,-0.6 -0.1,-1.3 0,-0.8 -1,-1.2 -2.9,-1.2 l -8.6,0 0,3.5 8.7,0 c 0.9,0 1.5,0 1.7,-0.1 0.8,-0.1 1.2,-0.4 1.2,-0.9 z"
       id="path3692"
       inkscape:connector-curvature="0"
       style="fill:#ee7b01" /><path
       d="m 742,129.7 c 0,0.4 -0.1,0.7 -0.3,1.1 -0.2,0.4 -0.5,0.6 -0.8,0.6 l -11.9,0 c 0.1,1.1 1.2,1.6 3.3,1.6 0.2,0 0.4,0 0.7,0 0.3,0 0.5,0 0.6,0 0.9,0 1.4,0.6 1.4,1.8 0,1 -0.5,1.5 -1.4,1.5 -1.7,0 -2.8,0 -3.4,-0.1 -1.4,-0.2 -2.4,-0.6 -3.1,-1.2 -1,-0.9 -1.5,-2 -1.5,-3.2 l 0,-4.7 c 0,-1.6 0.8,-2.8 2.3,-3.6 1.1,-0.6 2.5,-0.9 4.1,-0.9 l 4.6,0 c 1.3,0 2.4,0.3 3.4,0.8 1.4,0.7 2,1.8 2,3.2 l 0,3.1 z m -3.2,-1.8 0,-1.1 c 0,-0.3 -0.3,-0.6 -0.9,-0.7 -0.2,0 -0.9,-0.1 -2,-0.2 0,0 -1.2,0 -3.5,0 -1,0 -1.7,0 -1.9,0.1 -0.9,0.1 -1.4,0.4 -1.4,0.9 l 0,1 9.7,0 z"
       id="path3694"
       inkscape:connector-curvature="0"
       style="fill:#ee7b01" /><path
       d="m 753.2,124.5 c 0,1 -0.5,1.5 -1.4,1.5 l -3.5,0 0,8.7 c 0,1 -0.5,1.5 -1.4,1.5 -0.7,0 -1.1,-0.1 -1.4,-0.2 -0.4,-0.2 -0.6,-0.7 -0.6,-1.4 l 0,-8.7 -0.4,0 c -0.4,0 -0.8,-0.2 -1,-0.5 -0.2,-0.3 -0.3,-0.7 -0.3,-1.1 0,-0.4 0.1,-0.8 0.3,-1.1 0.3,-0.3 0.6,-0.5 1,-0.5 l 0.4,0 0,-2 c 0,-1 0.4,-1.5 1.3,-1.5 0.7,0 1.1,0.1 1.4,0.2 0.4,0.2 0.6,0.7 0.6,1.4 l 0,2 3.5,0 c 1.1,-0.1 1.5,0.5 1.5,1.7 z"
       id="path3696"
       inkscape:connector-curvature="0"
       style="fill:#ee7b01" /><path
       d="m 771.7,134.7 c 0,0.7 -0.3,1.2 -0.8,1.4 -0.2,0.1 -0.6,0.1 -1.2,0.1 -0.9,0 -1.3,-0.5 -1.3,-1.5 l 0,-7.4 c 0,-0.6 -0.4,-1 -1.1,-1.1 -0.3,-0.1 -0.9,-0.1 -1.7,-0.1 l -6.8,0 0,8.7 c 0,1 -0.5,1.5 -1.4,1.5 -0.7,0 -1.1,-0.1 -1.4,-0.2 -0.4,-0.2 -0.6,-0.7 -0.6,-1.4 l 0,-14 c 0,-0.7 0.2,-1.1 0.6,-1.4 0.2,-0.1 0.7,-0.2 1.4,-0.2 0.9,0 1.4,0.5 1.4,1.5 l 0,2 6.2,0 c 2,0 3.5,0.2 4.5,0.6 1.6,0.7 2.3,2 2.3,3.9 l 0,7.6 z"
       id="path3698"
       inkscape:connector-curvature="0"
       style="fill:#ee7b01" /><path
       d="m 790.4,132 c 0,2.2 -1.5,3.6 -4.4,4.1 -0.9,0.2 -2,0.2 -3.3,0.2 -0.4,0 -0.8,0 -1.4,0 -0.5,0 -0.9,0 -1.1,0 -4.3,0 -6.5,-1.4 -6.5,-4.3 l 0,-7.8 c 0,-1 0.5,-1.5 1.3,-1.5 0.7,0 1.1,0.1 1.4,0.2 0.4,0.2 0.6,0.7 0.6,1.4 l 0,7.8 c 0,0.5 0.4,0.8 1.3,0.9 0.2,0 0.8,0 1.8,0 l 3.7,0 c 1,0 1.6,0 1.8,0 0.9,-0.1 1.3,-0.4 1.3,-0.9 l 0,-7.9 c 0,-0.7 0.2,-1.2 0.6,-1.4 0.2,-0.1 0.7,-0.2 1.4,-0.2 0.9,0 1.4,0.5 1.4,1.5 l 0,7.9 z"
       id="path3700"
       inkscape:connector-curvature="0"
       style="fill:#ee7b01" /><path
       d="m 808.8,134.7 c 0,1 -0.5,1.5 -1.4,1.5 -0.7,0 -1.1,-0.1 -1.4,-0.2 -0.4,-0.2 -0.6,-0.7 -0.6,-1.4 l 0,-8 c 0,-0.5 -0.9,-0.7 -2.7,-0.7 l -4,0 c -1.8,0 -2.8,0.2 -2.8,0.7 l 0,8 c 0,1 -0.5,1.5 -1.4,1.5 -0.7,0 -1.1,-0.1 -1.4,-0.2 -0.4,-0.2 -0.6,-0.7 -0.6,-1.4 l 0,-8 c 0,-2.7 2,-4.1 6.1,-4.1 l 4,0 c 1.6,0 2.9,0.2 3.9,0.7 1.4,0.7 2.2,1.8 2.2,3.3 l 0,8.3 z"
       id="path3702"
       inkscape:connector-curvature="0"
       style="fill:#ee7b01" /><path
       d="m 827.2,129.7 c 0,0.4 -0.1,0.7 -0.3,1.1 -0.2,0.4 -0.5,0.6 -0.8,0.6 l -11.9,0 c 0.1,1.1 1.2,1.6 3.3,1.6 0.2,0 0.4,0 0.7,0 0.3,0 0.5,0 0.6,0 0.9,0 1.4,0.6 1.4,1.8 0,1 -0.5,1.5 -1.4,1.5 -1.7,0 -2.8,0 -3.4,-0.1 -1.4,-0.2 -2.4,-0.6 -3.1,-1.2 -1,-0.9 -1.5,-2 -1.5,-3.2 l 0,-4.7 c 0,-1.6 0.8,-2.8 2.3,-3.6 1.2,-0.6 2.5,-0.9 4.1,-0.9 l 4.6,0 c 1.3,0 2.4,0.3 3.4,0.8 1.4,0.7 2,1.8 2,3.2 l 0,3.1 z m -3.3,-1.8 0,-1.1 c 0,-0.3 -0.3,-0.6 -0.9,-0.7 -0.2,0 -0.9,-0.1 -2,-0.2 0,0 -1.2,0 -3.5,0 -1,0 -1.7,0 -1.9,0.1 -0.9,0.1 -1.4,0.4 -1.4,0.9 l 0,1 9.7,0 z"
       id="path3704"
       inkscape:connector-curvature="0"
       style="fill:#ee7b01" /></g></svg>